<svg width="116" height="40" viewBox="0 0 116 40" fill="none" xmlns="http://www.w3.org/2000/svg">
<path d="M66.1887 3.30937C66.2665 2.68325 56.5387 3.84605 54.4764 5.24738C54.4764 5.24738 52.4141 10.1968 51.3246 10.6738C51.3246 10.6738 52.9977 8.46746 53.1923 6.20148C53.1923 6.20148 43.4256 10.9421 41.1298 17.2034C41.1298 17.2034 48.6397 14.3709 55.2546 15.2654C55.2546 15.2654 51.4802 13.1485 47.6669 12.582C47.6669 12.582 53.309 13.4765 57.3947 15.5337C61.1304 15.0567 64.9433 15.0567 68.679 15.5337C68.679 15.5337 66.0719 12.9398 57.4336 9.83897C57.4336 9.83897 68.4455 13.9535 71.4028 15.8915C71.4028 15.8915 73.4651 16.0108 80.8582 16.1002C83.4318 16.1918 85.9924 15.7707 88.2902 14.8778C88.2902 14.8778 86.2279 12.254 74.36 9.03395C74.36 9.03395 85.1773 11.3596 89.5743 14.3113C89.5743 14.3113 92.337 13.4168 94.516 10.6142C94.516 10.6142 92.5316 8.40783 85.1773 7.84133C85.1773 7.84133 91.2475 8.05004 94.6717 9.24266C94.6717 9.24266 98.4461 5.18775 98.9908 1.87823L99.3021 0.0296631C99.3021 0.0296631 92.765 2.68324 89.2241 2.77269C89.2241 2.77269 87.4342 5.6648 87.5898 6.08221C87.7455 6.49963 88.2902 3.87587 88.5626 2.77269C88.5626 2.77269 81.8699 3.66716 78.7959 2.68325C78.7959 2.68325 80.08 5.63498 76.9282 9.00414C76.9282 9.00414 79.7298 4.47218 77.8231 2.68325L67.8229 3.04103C67.8229 3.04103 66.2665 8.05004 63.5038 9.09358" fill="white"/>
<path d="M80.9741 6.47008L82.2192 3.36926H81.3243L80.9741 6.47008Z" fill="white"/>
<path d="M48.3697 11.0615L47.6693 11.002C47.9056 10.9772 48.1462 10.9976 48.3697 11.0615Z" fill="white"/>
<mask id="mask0_195_621" style="mask-type:luminance" maskUnits="userSpaceOnUse" x="47" y="10" width="2" height="2">
<path d="M48.3707 11.0615L47.6703 11.002C47.9066 10.9772 48.1473 10.9976 48.3707 11.0615Z" fill="white"/>
</mask>
<g mask="url(#mask0_195_621)">
<path d="M48.3711 11.0616L47.6707 11.0021C47.907 10.9772 48.1476 10.9977 48.3711 11.0616Z" fill="white"/>
</g>
<path d="M66.1892 3.3098C66.267 2.68367 56.5392 3.84648 54.4769 5.24781C54.4769 5.24781 52.4146 10.1972 51.3251 10.6742C51.3251 10.6742 52.9983 8.46788 53.1929 6.2019C53.1929 6.2019 43.4261 10.9426 41.1304 17.2038C41.1304 17.2038 48.6402 14.3714 55.2551 15.2658C55.2551 15.2658 51.4808 13.1489 47.6675 12.5824C47.6675 12.5824 53.3096 13.4769 57.3953 15.5342C61.1309 15.0571 64.9439 15.0571 68.6795 15.5342C68.6795 15.5342 66.0725 12.9402 57.4342 9.8394C57.4342 9.8394 68.4461 13.9539 71.4033 15.892C71.4033 15.892 73.4656 16.0112 80.8587 16.1007C83.4323 16.1923 85.993 15.7711 88.2908 14.8782C88.2908 14.8782 86.2285 12.2545 74.3606 9.03438C74.3606 9.03438 85.1779 11.36 89.5748 14.3117C89.5748 14.3117 92.3375 13.4173 94.5166 10.6146C94.5166 10.6146 92.5321 8.40825 85.1779 7.84176C85.1779 7.84176 91.248 8.05047 94.6722 9.24309C94.6722 9.24309 98.4466 5.18818 98.9914 1.87865L99.3027 0.0300903C99.3027 0.0300903 92.7656 2.68367 89.2246 2.77312C89.2246 2.77312 87.4347 5.66523 87.5904 6.08264C87.746 6.50006 88.2908 3.87629 88.5632 2.77312C88.5632 2.77312 81.8704 3.66758 78.7964 2.68367C78.7964 2.68367 80.0805 5.63541 76.9287 9.00456C76.9287 9.00456 79.7303 4.4726 77.8237 2.68367L67.8235 3.04146C67.8235 3.04146 66.267 8.05047 63.5043 9.09401" fill="white"/>
<path d="M42.0234 16.6669C42.0234 16.6669 46.3815 15.2656 47.3932 17.1439C47.899 18.0086 46.7317 18.5751 46.7317 18.5751C46.7317 18.5751 47.6266 17.949 46.3037 17.0545C44.9807 16.16 41.7121 17.2632 40.8561 17.949L42.0234 16.6669Z" fill="white"/>
<mask id="mask1_195_621" style="mask-type:luminance" maskUnits="userSpaceOnUse" x="40" y="16" width="8" height="3">
<path d="M42.0249 16.6674C42.0249 16.6674 46.383 15.266 47.3947 17.1444C47.9005 18.0091 46.7332 18.5756 46.7332 18.5756C46.7332 18.5756 47.6282 17.9494 46.3052 17.055C44.9822 16.1605 41.7137 17.2637 40.8576 17.9494L42.0249 16.6674Z" fill="white"/>
</mask>
<g mask="url(#mask1_195_621)">
<path d="M42.024 16.6678C42.024 16.6678 46.3821 15.2665 47.3938 17.1449C47.8996 18.0095 46.7323 18.576 46.7323 18.576C46.7323 18.576 47.6272 17.9499 46.3043 17.0554C44.9813 16.1609 41.7127 17.2641 40.8567 17.9499L42.024 16.6678Z" fill="white"/>
</g>
<path d="M41.6382 16.7265C41.6382 16.7265 45.5683 12.5225 41.2102 12.0455C41.2102 12.0455 43.3503 12.612 42.611 14.3115C42.1253 15.4008 41.4016 16.4191 40.4709 17.3228L41.6382 16.7265Z" fill="white"/>
<mask id="mask2_195_621" style="mask-type:luminance" maskUnits="userSpaceOnUse" x="40" y="12" width="4" height="6">
<path d="M41.6405 16.7262C41.6405 16.7262 45.5706 12.5222 41.2125 12.0452C41.2125 12.0452 43.3526 12.6117 42.6133 14.3111C42.1276 15.4005 41.4039 16.4188 40.4732 17.3225L41.6405 16.7262Z" fill="white"/>
</mask>
<g mask="url(#mask2_195_621)">
<path d="M41.6406 16.7262C41.6406 16.7262 45.5706 12.5222 41.2126 12.0452C41.2126 12.0452 43.3527 12.6117 42.6134 14.3111C42.1277 15.4005 41.404 16.4188 40.4733 17.3225L41.6406 16.7262Z" fill="white"/>
</g>
<path d="M41.0906 17.1439C41.0906 17.1439 42.7248 15.5637 41.2073 14.6394C39.6898 13.7151 38.7948 15.1463 39.0672 15.4743C39.3396 15.8022 39.7676 14.4307 40.5069 14.878C41.2462 15.3252 40.8571 16.2197 40.8571 16.2197L39.9232 18.1577L41.0906 17.1439Z" fill="white"/>
<mask id="mask3_195_621" style="mask-type:luminance" maskUnits="userSpaceOnUse" x="39" y="14" width="3" height="5">
<path d="M41.0911 17.1444C41.0911 17.1444 42.7254 15.5641 41.2079 14.6399C39.6903 13.7156 38.7954 15.1467 39.0677 15.4747C39.3401 15.8027 39.7681 14.4311 40.5074 14.8784C41.2468 15.3256 40.8576 16.2201 40.8576 16.2201L39.9238 18.1581L41.0911 17.1444Z" fill="white"/>
</mask>
<g mask="url(#mask3_195_621)">
<path d="M41.0919 17.1443C41.0919 17.1443 42.7262 15.5641 41.2086 14.6398C39.6911 13.7155 38.7961 15.1467 39.0685 15.4746C39.3409 15.8026 39.7689 14.4311 40.5082 14.8783C41.2476 15.3256 40.8584 16.22 40.8584 16.22L39.9246 18.158L41.0919 17.1443Z" fill="white"/>
</g>
<path d="M39.4949 18.098C48.0165 9.03411 58.4836 9.03411 68.8729 8.94466C78.7953 8.88503 89.8461 8.88503 99.068 0C89.8461 8.88503 80.4295 8.94466 70.4683 9.30245C66.188 9.48134 49.8064 7.90112 40.5066 18.5154L37.705 22.4213L37.6272 20.2149C37.705 20.2746 38.6 18.9925 39.4949 18.098Z" fill="white"/>
<mask id="mask4_195_621" style="mask-type:luminance" maskUnits="userSpaceOnUse" x="37" y="0" width="63" height="23">
<path d="M39.493 18.098C48.0145 9.03411 58.4817 9.03411 68.871 8.94466C78.7933 8.88503 89.8441 8.88503 99.0661 0C89.8441 8.88503 80.4276 8.94466 70.4663 9.30245C66.1861 9.48134 49.8045 7.90112 40.5047 18.5154L37.7031 22.4213L37.6252 20.2149C37.7031 20.2746 38.598 18.9925 39.493 18.098Z" fill="white"/>
</mask>
<g mask="url(#mask4_195_621)">
<path d="M39.4926 18.098C48.0142 9.03411 58.4813 9.03411 68.8706 8.94466C78.7929 8.88503 89.8437 8.88503 99.0657 0C89.8437 8.88503 80.4272 8.94466 70.466 9.30245C66.1857 9.48134 49.8041 7.90112 40.5043 18.5154L37.7027 22.4213L37.6249 20.2149C37.7027 20.2746 38.5977 18.9925 39.4926 18.098Z" fill="white"/>
</g>
<path d="M76.4993 10.4652C76.4993 10.4652 82.9196 12.0454 86.1492 14.5201C86.1492 14.5201 84.2815 15.5637 80.5849 15.355C80.5849 15.355 85.9158 13.6853 76.4993 10.4652Z" fill="white"/>
<path d="M76.1096 7.51338C76.1096 7.51338 77.6271 5.36666 76.8489 3.30939L73.4247 3.39883C73.4247 3.39883 78.1719 3.30939 76.1096 7.51338Z" fill="white"/>
<path d="M93.3479 10.7337C93.3479 10.7337 88.9509 8.19935 84.554 8.58695C84.554 8.58695 89.2233 8.82548 92.3362 11.4791C92.414 11.4791 92.7642 11.4194 93.3479 10.7337Z" fill="white"/>
<path d="M10.0391 22.0933H12.5294V22.3318C11.7512 22.3318 11.3621 22.6896 11.3621 23.3754V23.5245L11.9068 28.4738C11.9076 28.8387 12.028 29.1975 12.257 29.5174C12.517 29.7153 12.8637 29.8322 13.2298 29.8454V30.0541H9.41652V29.8454C9.5769 29.8442 9.73463 29.8139 9.87671 29.7569C10.0188 29.6999 10.1411 29.6178 10.2337 29.5174C10.4382 29.3235 10.5483 29.081 10.5449 28.8316V28.6229L9.96127 23.435L6.34253 30.1137H6.07015L2.49032 23.5245L1.86774 28.4738V28.6826C1.83513 28.9785 1.9555 29.2725 2.20294 29.5011C2.45038 29.7297 2.8051 29.8748 3.19072 29.905H3.22963V30.1137H0V29.905C0.18783 29.8938 0.370792 29.8537 0.537938 29.7871C0.705085 29.7206 0.852982 29.6288 0.972781 29.5174C1.2187 29.1797 1.35234 28.8008 1.36189 28.4142L1.98447 22.8983C1.62445 22.594 1.14754 22.3852 0.62258 22.302V22.0933H3.30745L6.69273 28.4142L10.0391 22.0933Z" fill="white"/>
<path d="M17.8209 29.1V27.4303L17.0037 27.6391C16.5323 27.7271 16.1016 27.9127 15.7586 28.1757C15.6471 28.2662 15.5645 28.3751 15.5173 28.4941C15.47 28.6131 15.4594 28.7388 15.4862 28.8615C15.4644 29.0783 15.5538 29.2931 15.7355 29.4601C15.9172 29.6272 16.1767 29.7333 16.459 29.756C16.7228 29.7525 16.9797 29.6903 17.1983 29.5771C17.4601 29.4659 17.6758 29.3006 17.8209 29.1ZM16.031 30.2628C15.7946 30.275 15.5575 30.2502 15.334 30.1901C15.1105 30.13 14.9053 30.0358 14.7307 29.9132C14.5561 29.7905 14.4158 29.642 14.3182 29.4766C14.2207 29.3112 14.1679 29.1324 14.1632 28.9509C14.1488 28.7904 14.1876 28.6297 14.2761 28.4837C14.3645 28.3377 14.4997 28.2113 14.6691 28.1161C15.2478 27.8177 15.8946 27.6053 16.5757 27.49L17.8209 27.162V26.8042C17.8223 26.4765 17.6704 26.1591 17.3928 25.9098C17.2618 25.8057 17.1046 25.723 16.9307 25.6666C16.7569 25.6103 16.5699 25.5814 16.3812 25.5818C16.0018 25.5796 15.6323 25.674 15.3306 25.8501C15.03 26.0573 14.8139 26.3264 14.708 26.6253H14.3967C14.4769 26.1916 14.7689 25.7973 15.2138 25.5222C15.6193 25.2178 16.1637 25.0466 16.7314 25.0451C17.3566 25.0488 17.9611 25.2173 18.4434 25.5222C18.6567 25.6977 18.8217 25.9043 18.9286 26.1296C19.0356 26.355 19.0823 26.5946 19.066 26.834V28.9509C19.0336 29.1615 19.0601 29.375 19.1438 29.5771C19.1533 29.6271 19.1861 29.6728 19.2362 29.7057C19.2863 29.7386 19.3503 29.7565 19.4162 29.756C19.4551 29.756 19.6108 29.6963 19.6108 29.6367C19.6921 29.5231 19.7573 29.4031 19.8053 29.2789H20.1555C20.1741 29.4166 20.1441 29.5556 20.0689 29.6814C19.9936 29.8073 19.8757 29.9154 19.7275 29.9945C19.609 30.0824 19.4688 30.1514 19.3152 30.1975C19.1615 30.2435 18.9975 30.2658 18.8326 30.2628C18.2878 30.2628 17.9376 30.0541 17.743 29.5771C17.4996 29.7979 17.2256 29.9978 16.9259 30.1734C16.6343 30.2344 16.3332 30.2645 16.031 30.2628Z" fill="white"/>
<path d="M27.121 25.0151H27.3934V29.1594C27.3607 29.3698 27.43 29.5819 27.5879 29.7557C27.8571 29.8788 28.1714 29.9311 28.4829 29.9048V30.1135L26.1482 30.203V29.3085C25.9041 29.598 25.5702 29.8366 25.1764 30.0031C24.7826 30.1695 24.3411 30.2587 23.8914 30.2626C23.6077 30.2768 23.3236 30.2412 23.0606 30.1586C22.7976 30.0759 22.5627 29.9483 22.3738 29.7856C22.1606 29.6349 21.994 29.4496 21.8863 29.2433C21.7786 29.0369 21.7325 28.8147 21.7513 28.5929V26.0586C21.7687 25.9588 21.7528 25.8573 21.7052 25.7634C21.6576 25.6696 21.5797 25.5865 21.4789 25.5219C21.2097 25.3989 20.8955 25.3466 20.5839 25.3729V25.1642L22.6462 25.0151H22.9964V28.5333C22.9805 28.6767 23.0024 28.8211 23.0608 28.9579C23.1192 29.0947 23.2129 29.2211 23.3363 29.3295C23.4597 29.438 23.6104 29.5264 23.7793 29.5894C23.9481 29.6523 24.1318 29.6886 24.3194 29.6961H24.475C25.0976 29.6961 25.6813 29.4278 26.2261 28.8911V26.2077C26.2261 25.8499 26.1482 25.6412 25.9926 25.5816C25.8759 25.4623 25.5256 25.4325 24.9809 25.4325V25.2238L27.121 25.0151Z" fill="white"/>
<path d="M31.441 25.0153V26.0589C31.8678 25.7555 32.323 25.4765 32.8029 25.224C33.0535 25.0799 33.3483 24.9875 33.6589 24.9557C33.8747 24.9533 34.0889 24.9837 34.2893 25.0451C34.4896 25.1065 34.6721 25.1977 34.8263 25.3135L34.3204 26.2079C33.8658 25.9772 33.3452 25.834 32.8029 25.7905C32.2845 25.8692 31.8095 26.0668 31.441 26.357V29.1001C31.4083 29.3104 31.4776 29.5226 31.6355 29.6964C31.8904 29.8193 32.1924 29.8719 32.4916 29.8454V30.0542H29.0285V29.8454C29.34 29.8717 29.6542 29.8194 29.9234 29.6964C30.0791 29.5771 30.118 29.3088 30.118 28.8913V26.1483C30.1525 26.03 30.1529 25.9074 30.1193 25.789C30.0857 25.6706 30.0189 25.5592 29.9234 25.4626C29.5854 25.3362 29.2081 25.2846 28.8339 25.3135V25.1048L31.0908 24.9557H31.441" fill="white"/>
<path d="M37.5496 22.4809C37.65 22.4808 37.7495 22.4964 37.8418 22.5267C37.9341 22.557 38.0174 22.6014 38.0866 22.6572C38.1558 22.713 38.2094 22.779 38.2442 22.8513C38.279 22.9235 38.2942 23.0003 38.2889 23.0772C38.289 23.1542 38.2687 23.2304 38.2292 23.3011C38.1896 23.3719 38.1316 23.4357 38.0588 23.4887C37.986 23.5417 37.8998 23.5828 37.8056 23.6094C37.7113 23.6361 37.611 23.6478 37.5107 23.6437C37.3208 23.629 37.1427 23.566 37.0048 23.4648C36.8472 23.3578 36.7497 23.2082 36.7325 23.0474C36.7354 22.8901 36.8193 22.7401 36.9659 22.63C37.1367 22.5368 37.34 22.4848 37.5496 22.4809ZM37.8609 25.0152H38.1722V29.1596C38.1722 29.4279 38.25 29.6366 38.4056 29.6963C38.6444 29.8219 38.9357 29.8751 39.2228 29.8453V30.054H35.6429V29.8453C35.9919 29.871 36.343 29.8192 36.6546 29.6963C36.8215 29.5478 36.9053 29.355 36.8881 29.1596V26.1482C36.8881 25.8501 36.8103 25.6413 36.6546 25.5817C36.499 25.5221 36.1877 25.4326 35.6429 25.4326V25.2239L37.8609 25.0152Z" fill="white"/>
<path d="M46.1491 25.015V26.7443H45.8378C45.7211 26.3272 45.451 25.9444 45.0596 25.6411C44.8696 25.4998 44.6446 25.389 44.3979 25.3153C44.1512 25.2416 43.8877 25.2066 43.623 25.2121C43.3582 25.2177 43.0977 25.2638 42.8566 25.3477C42.6155 25.4316 42.3987 25.5517 42.2191 25.7008L42.1024 25.7902C41.6846 26.2204 41.4656 26.7449 41.4798 27.281C41.46 27.9006 41.7061 28.5081 42.1802 29.0103C42.3692 29.2288 42.6226 29.4101 42.9201 29.5396C43.2175 29.6691 43.5506 29.7431 43.8923 29.7557C44.3504 29.7262 44.7981 29.6354 45.2153 29.4873C45.655 29.3136 46.0299 29.0571 46.3048 28.7419V29.0997C45.9927 29.4605 45.5625 29.7522 45.0572 29.9458C44.552 30.1394 43.9893 30.228 43.4253 30.2029C43.0223 30.2272 42.6171 30.1888 42.234 30.09C41.8509 29.9912 41.4978 29.8339 41.1961 29.6278C40.8943 29.4217 40.6502 29.1709 40.4782 28.8905C40.3063 28.6102 40.2102 28.3061 40.1957 27.9965C40.1572 27.9095 40.1572 27.8152 40.1957 27.7282C40.1655 27.0136 40.5006 26.3183 41.1296 25.7902C41.4299 25.5385 41.7972 25.339 42.2066 25.2053C42.6161 25.0716 43.0582 25.0067 43.5032 25.015C43.9714 25.009 44.4359 25.0802 44.8651 25.2237L45.332 25.3131C45.4313 25.3092 45.5264 25.281 45.6034 25.2328C45.6804 25.1845 45.7353 25.1186 45.76 25.0448H46.1491" fill="white"/>
<path d="M48.6387 26.8341H52.1407V26.7447C52.1665 26.5552 52.138 26.3637 52.0574 26.1835C51.9767 26.0033 51.8459 25.8387 51.6738 25.7011C51.5111 25.5755 51.3169 25.4764 51.1029 25.4098C50.889 25.3432 50.6596 25.3104 50.4286 25.3135C50.1945 25.3125 49.9627 25.3491 49.7483 25.421C49.5338 25.4929 49.3414 25.5985 49.1835 25.731C48.8358 26.0371 48.6426 26.4284 48.6387 26.8341ZM53.4637 28.8616V29.2194C53.1132 29.5277 52.722 29.8075 52.2964 30.0542C51.8511 30.23 51.3576 30.322 50.8567 30.3225C50.3967 30.3379 49.9377 30.2796 49.5088 30.1513C49.08 30.0229 48.6909 29.8274 48.3664 29.5772C48.0377 29.3423 47.7803 29.055 47.6122 28.7356C47.4441 28.4162 47.3695 28.0725 47.3936 27.7286C47.3979 27.031 47.7453 26.3603 48.3664 25.8502C48.6537 25.5922 49.0121 25.3862 49.4158 25.247C49.8195 25.1078 50.2584 25.0389 50.701 25.0452C51.4303 25.0707 52.128 25.2804 52.6855 25.6415C52.9551 25.805 53.1724 26.0136 53.3208 26.2513C53.4691 26.489 53.5446 26.7495 53.5415 27.013V27.1025H48.7944V27.1621C48.7975 27.6514 48.9161 28.1363 49.1446 28.5932C49.3034 28.9763 49.6343 29.3037 50.0784 29.5175C50.4589 29.7452 50.9198 29.8803 51.4014 29.9051C51.7828 29.9141 52.16 29.8419 52.4909 29.6964C52.5688 29.5175 52.9968 29.279 53.4637 28.8616Z" fill="white"/>
<path d="M60.2727 26.3867H63.2299L61.7902 23.0176L60.2727 26.3867ZM63.658 30.1137V29.905C64.2416 29.905 64.5529 29.7559 64.5529 29.4279C64.5457 29.3165 64.5196 29.2062 64.4751 29.0999L63.5023 26.8936H60.117L59.4555 28.5334C59.2881 28.8148 59.1955 29.1188 59.1832 29.4279C59.1832 29.7559 59.4555 29.9646 60.0003 29.9646V30.1733H57.3154V29.9646C57.6541 29.9375 57.9703 29.8217 58.2104 29.6366C58.4895 29.3395 58.7244 29.0195 58.9108 28.6825L61.7902 22.0635H62.8797L65.9148 28.9509C66.0108 29.2484 66.1975 29.5243 66.4596 29.7559C66.7567 29.8798 67.0959 29.9318 67.4323 29.905V30.1137H63.658Z" fill="white"/>
<path d="M70.2353 25.0152V25.9991C71.0135 25.3133 71.7528 25.0152 72.57 25.0152C72.8617 25.0023 73.1537 25.0354 73.4281 25.1123C73.7024 25.1892 73.9533 25.3083 74.1653 25.4624C74.3816 25.6424 74.5482 25.8541 74.6551 26.0846C74.7621 26.3151 74.8073 26.5599 74.7879 26.8041V29.0701C74.7536 29.3088 74.8219 29.5496 74.9825 29.7558C75.2517 29.8788 75.5659 29.9312 75.8774 29.9049V30.1136H72.4532V29.9049C72.759 29.9112 73.0632 29.8707 73.3482 29.7856C73.4255 29.7287 73.4836 29.6583 73.5175 29.5804C73.5514 29.5025 73.56 29.4194 73.5428 29.3384V26.6848C73.5592 26.5325 73.533 26.3792 73.4659 26.2352C73.3988 26.0912 73.2924 25.9599 73.1537 25.85C72.872 25.6407 72.4954 25.5232 72.103 25.522C71.4805 25.522 70.8579 25.85 70.2353 26.4761V28.8912C70.1891 29.1721 70.2716 29.4567 70.4688 29.6962C70.7369 29.8213 71.052 29.8738 71.3637 29.8453V30.054H67.9006V29.8453C68.4065 29.8453 68.7178 29.7856 68.7956 29.6962C68.8734 29.6067 68.9512 29.3086 68.9512 28.8912V26.1481C68.9702 26.0463 68.9591 25.9426 68.9187 25.8445C68.8783 25.7465 68.8096 25.6566 68.7178 25.5816C68.5894 25.5119 68.444 25.4627 68.2902 25.437C68.1364 25.4114 67.9774 25.4099 67.8228 25.4326V25.2239L69.8462 25.045H70.2353" fill="white"/>
<path d="M81.868 29.1595V26.1481C81.6177 25.9023 81.3152 25.6907 80.973 25.522C80.6687 25.3799 80.3176 25.3075 79.9613 25.3133C79.6748 25.3099 79.3919 25.3629 79.1398 25.4673C78.8877 25.5718 78.6749 25.724 78.5216 25.9096C78.1332 26.3381 77.9292 26.8489 77.938 27.3705C77.9015 28.0381 78.1775 28.6937 78.7162 29.2191C78.9636 29.4512 79.2799 29.6345 79.6387 29.7538C79.9975 29.8731 80.3883 29.9249 80.7785 29.9049C80.9085 29.9196 81.041 29.9139 81.168 29.8883C81.2951 29.8627 81.4141 29.8176 81.5178 29.7558C81.6456 29.6933 81.7469 29.6036 81.8091 29.4977C81.8713 29.3918 81.8918 29.2742 81.868 29.1595ZM82.8408 21.318H83.1132V29.1595C83.0805 29.3698 83.1497 29.582 83.3077 29.7558C83.5613 29.881 83.8644 29.9338 84.1638 29.9049V30.1136H80.3505C79.3506 30.1456 78.3738 29.8783 77.6267 29.3682C77.2817 29.1402 77.0082 28.8557 76.8263 28.5357C76.6445 28.2157 76.5589 27.8684 76.5761 27.5196C76.5532 26.856 76.8751 26.2126 77.471 25.7307C77.7457 25.5064 78.0771 25.3272 78.445 25.2042C78.8129 25.0812 79.2097 25.0168 79.6111 25.0151C80.3914 25.048 81.1449 25.2439 81.7902 25.5816V22.5404C81.8301 22.308 81.7899 22.0715 81.6734 21.8547C81.58 21.7884 81.4692 21.7382 81.3484 21.7073C81.2276 21.6765 81.0997 21.6657 80.973 21.6758H80.6228V21.4671L82.8408 21.318Z" fill="white"/>
<path d="M87.161 25.0153V26.0589C87.5935 25.7482 88.0624 25.4688 88.5618 25.224C88.7944 25.0756 89.0783 24.9824 89.3789 24.9557C89.5947 24.9533 89.809 24.9837 90.0093 25.0451C90.2097 25.1065 90.3922 25.1977 90.5463 25.3135L90.0793 26.2079C89.6215 25.9822 89.1025 25.8394 88.5618 25.7905C88.0286 25.8616 87.5384 26.0598 87.161 26.357V29.1001C87.1602 29.3121 87.2415 29.5196 87.3945 29.6964C87.6333 29.822 87.9245 29.8752 88.2116 29.8454V30.0542H84.7485V29.8454C85.0602 29.874 85.3754 29.8215 85.6435 29.6964C85.8406 29.4568 85.9231 29.1723 85.8769 28.8913V26.1483C85.9169 25.9052 85.8333 25.6597 85.6435 25.4626C85.3054 25.3362 84.9282 25.2846 84.554 25.3135V25.1048L86.8108 24.9557H87.161" fill="white"/>
<path d="M92.5309 26.8341H96.0329V26.7447C96.0586 26.5552 96.0302 26.3637 95.9495 26.1835C95.8689 26.0033 95.738 25.8387 95.566 25.7011C95.4061 25.5726 95.2125 25.4715 94.9978 25.4047C94.7831 25.3379 94.5523 25.3068 94.3208 25.3135C94.0867 25.3125 93.8549 25.3491 93.6404 25.421C93.4259 25.4929 93.2335 25.5985 93.0756 25.731C92.765 26.0533 92.5765 26.435 92.5309 26.8341ZM97.4337 28.8616V29.2194C97.0832 29.5277 96.692 29.8075 96.2664 30.0542C95.8196 30.2269 95.327 30.3187 94.8266 30.3225C94.3667 30.3379 93.9076 30.2796 93.4788 30.1513C93.05 30.0229 92.6609 29.8274 92.3363 29.5772C92.0077 29.3423 91.7502 29.055 91.5822 28.7356C91.4141 28.4162 91.3395 28.0725 91.3635 27.7286C91.3679 27.031 91.7152 26.3603 92.3363 25.8502C92.6237 25.5922 92.9821 25.3862 93.3858 25.247C93.7895 25.1078 94.2284 25.0389 94.671 25.0452C95.4002 25.0707 96.098 25.2804 96.6555 25.6415C96.9251 25.805 97.1424 26.0136 97.2907 26.2513C97.4391 26.489 97.5146 26.7495 97.5115 27.013V27.1025H92.7643V27.1621C92.7729 27.6485 92.8778 28.131 93.0756 28.5932C93.2634 28.9728 93.6041 29.2965 94.0484 29.5175C94.4289 29.7452 94.8897 29.8803 95.3714 29.9051C95.7523 29.9111 96.1285 29.8391 96.4609 29.6964C96.5387 29.5175 96.9278 29.279 97.4337 28.8616Z" fill="white"/>
<path d="M101.208 25.1644V25.3731C100.741 25.3731 100.507 25.4626 100.507 25.7011C100.546 25.8429 100.598 25.9824 100.663 26.1185L102.103 28.8914L103.62 25.9098C103.536 25.7324 103.388 25.5771 103.192 25.4626C103.022 25.4016 102.835 25.371 102.647 25.3731V25.1644H105.76V25.3731C105.216 25.3731 104.943 25.5222 104.943 25.7309C104.916 25.8409 104.929 25.9545 104.982 26.0589L106.422 28.8616L107.745 26.2676C107.855 26.1016 107.908 25.917 107.9 25.7309C107.9 25.4924 107.589 25.3135 107.044 25.3135V25.1048H109.612V25.3135C109.276 25.2867 108.937 25.3387 108.64 25.4626C108.407 25.6869 108.223 25.9386 108.095 26.208L106.11 30.1138H105.838L103.776 26.208L101.714 30.1138H101.402L99.1454 25.8502C99.0485 25.6784 98.8838 25.5342 98.6744 25.438C98.465 25.3417 98.2214 25.2982 97.978 25.3135V25.1048H101.208" fill="white"/>
<path d="M114.748 25.0153V26.5359H114.437C114.404 26.1904 114.194 25.8688 113.853 25.6414C113.709 25.5342 113.538 25.45 113.351 25.3937C113.164 25.3374 112.965 25.3101 112.764 25.3134C112.628 25.3086 112.493 25.3245 112.366 25.3604C112.239 25.3962 112.123 25.4512 112.024 25.5221C111.927 25.5753 111.85 25.6478 111.802 25.7318C111.754 25.8158 111.737 25.9082 111.752 25.9992C111.738 26.0988 111.755 26.1996 111.803 26.2929C111.85 26.3863 111.926 26.4696 112.024 26.5359C112.377 26.7504 112.77 26.9214 113.192 27.0427C113.782 27.2186 114.314 27.4937 114.748 27.8478C115.049 28.1274 115.197 28.4854 115.161 28.8468C115.124 29.2082 114.907 29.5447 114.554 29.7858C114.371 29.939 114.149 30.0607 113.901 30.143C113.652 30.2252 113.384 30.2661 113.114 30.2628C112.704 30.2373 112.307 30.1459 111.947 29.9945C111.79 29.9339 111.616 29.9032 111.441 29.905C111.339 29.909 111.242 29.9408 111.168 29.9945C111.095 30.0728 111.054 30.1664 111.052 30.2628H110.701V28.5931H111.052C111.139 28.9946 111.399 29.362 111.791 29.6367C112.156 29.8805 112.63 30.0084 113.114 29.9945C113.423 29.9945 113.72 29.9002 113.939 29.7325C114.158 29.5647 114.281 29.3372 114.281 29.1C114.287 28.8735 114.191 28.6523 114.009 28.4739C113.619 28.2223 113.17 28.03 112.686 27.9074C112.139 27.7373 111.627 27.5063 111.168 27.2216C110.907 26.9531 110.79 26.6183 110.841 26.2857C110.891 25.9531 111.106 25.6479 111.441 25.4327C111.824 25.166 112.323 25.0173 112.841 25.0153C113.127 25.0034 113.411 25.0552 113.659 25.1644C113.803 25.2215 113.963 25.2521 114.126 25.2538C114.359 25.2538 114.437 25.224 114.554 25.0451H114.748" fill="white"/>
<path d="M24.4376 33.5722H24.6322V34.9139H24.4376C24.4084 34.5888 24.2291 34.2823 23.9318 34.0493C23.7899 33.9413 23.6187 33.8587 23.4304 33.8071C23.2421 33.7556 23.0413 33.7365 22.8423 33.7511C22.4957 33.7284 22.1502 33.8025 21.8695 33.9598C21.6776 34.1156 21.555 34.3139 21.5193 34.5263C21.5208 34.757 21.6314 34.9794 21.8306 35.1524C22.186 35.4668 22.6234 35.7207 23.1146 35.8978C23.8929 36.2854 24.4376 36.524 24.6322 36.7923C24.904 37.0442 25.055 37.3599 25.0602 37.6868C25.0597 37.8934 25.0042 38.0978 24.8972 38.2875C24.7902 38.4772 24.6338 38.6481 24.4376 38.7899C24.2753 38.9645 24.0585 39.105 23.807 39.1988C23.5555 39.2925 23.2773 39.3365 22.9979 39.3266C22.5695 39.3174 22.1471 39.2466 21.7527 39.1179L21.3247 38.9986C21.208 38.9986 21.1302 39.0583 21.0523 39.2372H20.8578V37.7464H21.0523C21.0413 37.9288 21.08 38.1109 21.166 38.2811C21.252 38.4514 21.3835 38.606 21.552 38.7351C21.7204 38.8642 21.9222 38.9649 22.1444 39.0308C22.3666 39.0967 22.6043 39.1264 22.8423 39.1179C23.2216 39.1201 23.5911 39.0257 23.8929 38.8496C24.0315 38.7587 24.1394 38.6434 24.2072 38.5136C24.2749 38.3837 24.3006 38.2433 24.282 38.1042C24.2571 37.8719 24.1341 37.6521 23.9318 37.4781C23.5288 37.1708 23.0701 36.9098 22.5699 36.7028C22.169 36.5357 21.802 36.3248 21.4804 36.0767C21.2804 35.9286 21.1331 35.7439 21.0523 35.54C20.9724 35.3473 20.933 35.146 20.9356 34.9437C20.917 34.7495 20.9564 34.5546 21.0508 34.3738C21.1452 34.193 21.2921 34.031 21.4804 33.9002C21.6707 33.7592 21.8965 33.6495 22.1441 33.5777C22.3916 33.506 22.6557 33.4736 22.9201 33.4828C23.2662 33.4861 23.6088 33.5366 23.9318 33.6318L24.282 33.6915L24.4376 33.6318V33.5722Z" fill="white"/>
<path d="M28.5606 36.4346C28.5295 37.1246 28.7887 37.804 29.2999 38.3726C29.5052 38.5759 29.7613 38.746 30.0532 38.8727C30.3451 38.9995 30.667 39.0805 31.0002 39.1111C31.3333 39.1416 31.6711 39.121 31.9938 39.0505C32.3165 38.9801 32.6177 38.8611 32.8797 38.7005L33.3078 38.3726C33.8183 37.8262 34.0782 37.1657 34.0471 36.4942C34.0838 35.7943 33.8245 35.1041 33.3078 34.5264C33.0743 34.3029 32.7782 34.1226 32.4414 33.9987C32.1046 33.8748 31.7358 33.8106 31.3622 33.8108C30.9802 33.7964 30.5995 33.8541 30.2535 33.9789C29.9075 34.1037 29.6067 34.2917 29.3777 34.5264C28.7552 35.0034 28.5606 35.6295 28.5606 36.4346ZM27.4711 36.4346C27.4399 36.051 27.5216 35.667 27.7102 35.3109C27.8988 34.9548 28.1894 34.6357 28.5606 34.3773C29.3058 33.8355 30.2961 33.5363 31.3233 33.5424C31.8239 33.5185 32.325 33.5811 32.7898 33.7257C33.2545 33.8702 33.6709 34.0929 34.0082 34.3773C34.3631 34.6452 34.6428 34.966 34.8301 35.3197C35.0175 35.6735 35.1085 36.0529 35.0977 36.4346C35.1182 36.8172 35.0315 37.1987 34.8436 37.5536C34.6557 37.9084 34.3708 38.2283 34.0082 38.4918C33.6466 38.7683 33.2149 38.9851 32.7397 39.1286C32.2646 39.2722 31.756 39.3396 31.2455 39.3267C30.7439 39.3436 30.2433 39.2803 29.7754 39.141C29.3074 39.0016 28.8825 38.7892 28.5275 38.5172C28.1725 38.2452 27.8953 37.9196 27.7134 37.561C27.5315 37.2025 27.449 36.8189 27.4711 36.4346Z" fill="white"/>
<path d="M43.1536 38.0148H43.3482L42.9202 39.2373H37.7061V39.0584C37.8248 39.07 37.9454 39.0567 38.055 39.02C38.1646 38.9832 38.2592 38.9244 38.3286 38.8497C38.4927 38.6227 38.5607 38.3622 38.5232 38.1043V34.6457C38.562 34.4257 38.4926 34.2025 38.3286 34.0196C38.1588 33.9009 37.9359 33.8368 37.7061 33.8407V33.6916H40.3131V33.8407C40.1955 33.8371 40.0784 33.854 39.9705 33.8902C39.8627 33.9264 39.7669 33.9808 39.6905 34.0494C39.53 34.2556 39.4617 34.4964 39.496 34.7351V38.4323C39.4875 38.5806 39.5421 38.7271 39.6516 38.8497C39.8258 38.934 40.0294 38.9757 40.2353 38.9689H41.7139C42.0311 38.9996 42.3516 38.9355 42.6089 38.79C42.8426 38.5552 43.0265 38.2936 43.1536 38.0148Z" fill="white"/>
<path d="M47.6277 33.6916V33.8407C47.3553 33.8407 47.044 33.9003 47.0051 34.0494C46.8336 34.253 46.7517 34.4933 46.7716 34.7351V38.1639C46.7517 38.4058 46.8336 38.6461 47.0051 38.8497C47.0815 38.9183 47.1772 38.9727 47.2851 39.0089C47.3929 39.045 47.51 39.0619 47.6277 39.0584V39.2373H44.9817V39.0584C45.3319 39.0584 45.5654 38.9988 45.6043 38.8497C45.6432 38.7006 45.7599 38.4919 45.7599 38.1639V34.7351C45.7616 34.5013 45.7089 34.2691 45.6043 34.0494C45.4383 33.9224 45.2161 33.8479 44.9817 33.8407V33.6916H47.6277Z" fill="white"/>
<path d="M56.2655 33.602V35.212H56.071C55.9738 34.7828 55.6849 34.3928 55.2538 34.1088C54.8266 33.8449 54.2833 33.7168 53.7363 33.751C53.3633 33.7329 52.9902 33.7861 52.6506 33.9058C52.311 34.0255 52.0156 34.208 51.7907 34.4368C51.3166 34.9601 51.0838 35.5896 51.1292 36.2257C51.0977 36.9344 51.3562 37.6329 51.8686 38.2234C52.0882 38.4676 52.386 38.6644 52.7336 38.7949C53.0811 38.9255 53.4666 38.9853 53.853 38.9687C54.3879 38.9709 54.9127 38.8573 55.367 38.6411C55.8213 38.4248 56.1867 38.1147 56.4212 37.7463L56.6157 37.8954C56.3731 38.3335 55.967 38.7069 55.4484 38.9687C54.8833 39.2224 54.2351 39.3466 53.5807 39.3265C52.9536 39.3281 52.3369 39.2048 51.7907 38.9687C51.2727 38.7306 50.8333 38.4041 50.5067 38.0146C50.2039 37.5716 50.0312 37.0831 50.0008 36.5835C49.9679 35.7898 50.3455 35.0182 51.0514 34.4368C51.3887 34.1524 51.8051 33.9297 52.2698 33.7852C52.7346 33.6407 53.2357 33.578 53.7363 33.602C54.1969 33.6053 54.6548 33.6555 55.0982 33.751L55.7208 33.8405C55.8035 33.8607 55.8932 33.8567 55.9723 33.8292C56.0514 33.8016 56.1143 33.7525 56.1488 33.6914H56.2655" fill="white"/>
<path d="M61.1681 33.6916V33.8407C60.8958 33.8407 60.6234 33.9003 60.5456 34.0494C60.385 34.2556 60.3167 34.4964 60.351 34.7351V38.1639C60.3167 38.4026 60.385 38.6434 60.5456 38.8497C60.622 38.9183 60.7177 38.9727 60.8256 39.0089C60.9334 39.045 61.0505 39.0619 61.1681 39.0584V39.2373H58.5611V39.0584C58.9113 39.0584 59.1059 38.9988 59.1837 38.8497C59.2615 38.7006 59.3004 38.4919 59.3004 38.1639V34.7351C59.2974 34.5038 59.2582 34.2736 59.1837 34.0494C59.0177 33.9224 58.7955 33.8479 58.5611 33.8407V33.6916H61.1681Z" fill="white"/>
<path d="M67.8225 33.9598H66.733V38.2235C66.7248 38.4577 66.7777 38.6909 66.8886 38.9092C66.9689 38.9709 67.0674 39.0167 67.1759 39.0427C67.2844 39.0686 67.3995 39.074 67.5112 39.0583V39.2372H64.9431V39.0583C65.2933 39.0583 65.4878 39.0285 65.5657 38.8496C65.6954 38.6355 65.7491 38.3989 65.7213 38.1638V33.9598H64.6707C64.2967 33.934 63.9205 33.9855 63.5812 34.1089C63.3504 34.2746 63.1995 34.4953 63.1532 34.735H62.9586V33.4828H63.3088C63.6238 33.6566 64.0137 33.7312 64.3983 33.6915H68.1338C68.5427 33.7268 68.9549 33.6531 69.3011 33.4828H69.4957V34.735H69.3401C69.3232 34.6116 69.273 34.4921 69.1926 34.3843C69.1122 34.2765 69.0034 34.1827 68.8731 34.1089C68.5486 33.9835 68.1841 33.9318 67.8225 33.9598Z" fill="white"/>
<path d="M72.5309 36.4344C72.4998 37.1244 72.759 37.8038 73.2702 38.3724C73.4755 38.5758 73.7315 38.7458 74.0235 38.8726C74.3154 38.9994 74.6373 39.0804 74.9704 39.1109C75.3036 39.1414 75.6414 39.1209 75.9641 39.0504C76.2868 38.9799 76.5879 38.8609 76.85 38.7004L77.278 38.3724C77.7606 37.7991 78.0172 37.1314 78.0172 36.4493C78.0172 35.7671 77.7606 35.0995 77.278 34.5262C77.0446 34.3027 76.7484 34.1224 76.4117 33.9985C76.0749 33.8747 75.706 33.8104 75.3325 33.8106C74.9505 33.7962 74.5698 33.854 74.2237 33.9787C73.8777 34.1035 73.577 34.2915 73.348 34.5262C72.7254 35.0032 72.5309 35.6294 72.5309 36.4344ZM71.4024 36.4344C71.3894 36.0498 71.4833 35.6674 71.6778 35.3127C71.8724 34.958 72.1632 34.6391 72.5309 34.3771C73.2663 33.8425 74.2409 33.5438 75.2546 33.5423C75.7555 33.5162 76.2576 33.5778 76.7227 33.7224C77.1879 33.8671 77.604 34.091 77.9395 34.3771C78.3072 34.6391 78.598 34.958 78.7925 35.3127C78.9871 35.6674 79.081 36.0498 79.0679 36.4344C79.0915 36.82 79.0024 37.2048 78.8072 37.5608C78.612 37.9167 78.3156 38.2347 77.9395 38.4917C77.1965 39.0262 76.2155 39.3238 75.1963 39.3238C74.177 39.3238 73.1961 39.0262 72.453 38.4917C71.772 37.9343 71.3959 37.1979 71.4024 36.4344Z" fill="white"/>
<path d="M84.0872 33.9002H83.309V36.4346H84.204C84.4329 36.4471 84.6626 36.4216 84.8775 36.3598C85.0924 36.2981 85.2874 36.2015 85.4491 36.0768C85.7664 35.8179 85.9467 35.4778 85.955 35.1227C85.9657 34.9539 85.9257 34.7854 85.838 34.6303C85.7503 34.4752 85.6172 34.3376 85.4491 34.2282C85.0477 34.0178 84.5736 33.9036 84.0872 33.9002ZM83.8538 36.6433H83.309V38.1639C83.2691 38.4069 83.3526 38.6525 83.5425 38.8496C83.6169 38.92 83.7123 38.9757 83.8206 39.012C83.929 39.0483 84.0471 39.0642 84.1651 39.0583V39.2372H81.5191V39.0583C81.8693 39.0583 82.0639 38.9987 82.1417 38.8496C82.2195 38.7005 82.2973 38.4918 82.2973 38.1639V34.7053C82.3056 34.471 82.2527 34.2379 82.1417 34.0195C82.0653 33.9509 81.9695 33.8965 81.8617 33.8603C81.7539 33.8242 81.6367 33.8072 81.5191 33.8108V33.6319H84.4764C85.1042 33.6189 85.72 33.7657 86.2274 34.0493C86.4295 34.1828 86.5928 34.3473 86.7068 34.5322C86.8207 34.7171 86.8828 34.9183 86.8889 35.1227C86.8889 35.8084 86.4219 36.2259 85.3713 36.4942C85.5964 36.6171 85.805 36.757 85.9939 36.9116C86.3105 37.2061 86.5845 37.526 86.811 37.8657C87.0647 38.1977 87.3648 38.5077 87.706 38.79C87.894 38.9366 88.1405 39.0311 88.4064 39.0583V39.2372H86.9667C86.5683 38.8488 86.2043 38.4404 85.8772 38.0148C85.5801 37.6033 85.1992 37.2309 84.7487 36.9116C84.6302 36.8237 84.49 36.7547 84.3364 36.7086C84.1828 36.6625 84.0187 36.6403 83.8538 36.6433Z" fill="white"/>
<path d="M94.1268 33.6022H94.3213V34.9141H94.1268C94.0963 34.5949 93.9326 34.2918 93.6598 34.0494C93.3729 33.8689 93.0184 33.763 92.6477 33.7469C92.277 33.7308 91.9093 33.8054 91.5975 33.96C91.489 34.0293 91.4014 34.1158 91.3409 34.2137C91.2805 34.3115 91.2485 34.4182 91.2473 34.5265C91.2417 34.7621 91.3374 34.9926 91.5197 35.1824C91.8869 35.4792 92.3222 35.7217 92.8038 35.898C93.582 36.2856 94.1268 36.5241 94.3213 36.7925C94.5931 37.0444 94.7442 37.3601 94.7493 37.6869C94.7394 38.1036 94.5189 38.5011 94.1343 38.7959C93.7497 39.0906 93.2309 39.2595 92.6871 39.2672C92.2564 39.2729 91.83 39.2014 91.4419 39.0584L91.0139 38.969C90.8971 38.969 90.8193 38.9988 90.7415 39.1777H90.5469V37.6869H90.7415C90.7409 37.875 90.7887 38.0614 90.8822 38.2353C90.9756 38.4093 91.113 38.5674 91.2863 38.7007C91.4509 38.8223 91.6463 38.9169 91.8605 38.9784C92.0746 39.04 92.303 39.0672 92.5314 39.0584C92.9107 39.0607 93.2803 38.9663 93.582 38.7901C93.7176 38.7038 93.8238 38.5937 93.8915 38.469C93.9593 38.3444 93.9866 38.209 93.9711 38.0745C93.9687 37.835 93.8588 37.6034 93.6598 37.4186C93.2357 37.1176 92.7653 36.8573 92.259 36.6434C91.8644 36.4689 91.4986 36.2587 91.1695 36.0173C90.9696 35.8692 90.8223 35.6845 90.7415 35.4806C90.665 35.2974 90.6256 35.1064 90.6248 34.9141C90.6198 34.516 90.8148 34.1316 91.1695 33.8407C91.5652 33.5696 92.0784 33.4208 92.6092 33.4233C92.96 33.4219 93.3064 33.4831 93.6209 33.6022H94.1268C94.0489 33.7513 94.0489 33.6917 94.1268 33.6022Z" fill="white"/>
</svg>
