<svg width="502" height="224" viewBox="0 0 502 224" fill="none" xmlns="http://www.w3.org/2000/svg">
<g clip-path="url(#clip0_70_1010)">
<path d="M288.481 18.9917C288.82 15.4307 246.421 22.0439 237.433 30.0136C237.433 30.0136 228.444 58.162 223.695 60.8751C223.695 60.8751 230.988 48.327 231.836 35.4398C231.836 35.4398 189.268 62.4012 179.262 98.0106C179.262 98.0106 211.993 81.9016 240.825 86.9886C240.825 86.9886 224.374 74.9493 207.754 71.7275C207.754 71.7275 232.345 76.8145 250.152 88.5148C266.434 85.8015 283.053 85.8015 299.335 88.5148C299.335 88.5148 287.972 73.7623 250.322 56.1272C250.322 56.1272 298.317 79.5276 311.206 90.5496C311.206 90.5496 320.195 91.2278 352.418 91.7366C363.635 92.2576 374.795 89.8623 384.81 84.7843C384.81 84.7843 375.822 69.8622 324.096 51.5488C324.096 51.5488 371.243 64.7752 390.407 81.5624C390.407 81.5624 402.448 76.4754 411.945 60.536C411.945 60.536 403.296 47.9879 371.243 44.7661C371.243 44.7661 397.7 45.9531 412.624 52.7358C412.624 52.7358 429.075 29.6745 431.449 10.8524L432.806 0.339137C432.806 0.339137 404.314 15.4307 388.881 15.9394C388.881 15.9394 381.079 32.3876 381.758 34.7615C382.436 37.1355 384.81 22.2135 385.998 15.9394C385.998 15.9394 356.827 21.0265 343.429 15.4307C343.429 15.4307 349.026 32.218 335.289 51.3793C335.289 51.3793 347.5 25.6048 339.189 15.4307L295.604 17.4656C295.604 17.4656 288.82 45.9531 276.779 51.888" fill="url(#paint0_radial_70_1010)"/>
<path d="M352.926 36.9659L358.353 19.3308H354.453L352.926 36.9659Z" fill="#B5E6EA"/>
<mask id="mask0_70_1010" style="mask-type:luminance" maskUnits="userSpaceOnUse" x="207" y="62" width="4" height="2">
<path d="M210.806 63.0795L207.753 62.7403C208.783 62.5988 209.832 62.7153 210.806 63.0795Z" fill="white"/>
</mask>
<g mask="url(#mask0_70_1010)">
<path d="M210.806 63.0795L207.753 62.7403C208.783 62.5988 209.832 62.7153 210.806 63.0795Z" fill="url(#paint1_radial_70_1010)"/>
</g>
<mask id="mask1_70_1010" style="mask-type:luminance" maskUnits="userSpaceOnUse" x="178" y="92" width="30" height="14">
<path d="M183.162 94.9584C183.162 94.9584 202.157 86.9886 206.566 97.6715C208.771 102.589 203.683 105.811 203.683 105.811C203.683 105.811 207.584 102.25 201.817 97.1628C196.051 92.0757 181.805 98.3497 178.074 102.25L183.162 94.9584Z" fill="white"/>
</mask>
<g mask="url(#mask1_70_1010)">
<path d="M183.162 94.9584C183.162 94.9584 202.157 86.9886 206.566 97.6715C208.771 102.589 203.683 105.811 203.683 105.811C203.683 105.811 207.584 102.25 201.817 97.1628C196.051 92.0757 181.805 98.3497 178.074 102.25L183.162 94.9584Z" fill="url(#paint2_radial_70_1010)"/>
</g>
<mask id="mask2_70_1010" style="mask-type:luminance" maskUnits="userSpaceOnUse" x="176" y="68" width="13" height="31">
<path d="M181.466 95.2975C181.466 95.2975 198.595 71.3883 179.601 68.6752C179.601 68.6752 188.928 71.897 185.706 81.5625C183.589 87.7581 180.435 93.5492 176.378 98.6889L181.466 95.2975Z" fill="white"/>
</mask>
<g mask="url(#mask2_70_1010)">
<path d="M181.466 95.2975C181.466 95.2975 198.595 71.3883 179.601 68.6752C179.601 68.6752 188.928 71.897 185.706 81.5625C183.589 87.7581 180.435 93.5492 176.378 98.6889L181.466 95.2975Z" fill="url(#paint3_radial_70_1010)"/>
</g>
<mask id="mask3_70_1010" style="mask-type:luminance" maskUnits="userSpaceOnUse" x="170" y="81" width="13" height="23">
<path d="M179.092 97.6715C179.092 97.6715 186.215 88.6843 179.601 83.4277C172.987 78.1711 169.086 86.3104 170.273 88.1756C171.46 90.0409 173.326 82.2407 176.548 84.7843C179.771 87.3278 178.075 92.4148 178.075 92.4148L174.004 103.437L179.092 97.6715Z" fill="white"/>
</mask>
<g mask="url(#mask3_70_1010)">
<path d="M179.092 97.6715C179.092 97.6715 186.215 88.6843 179.601 83.4277C172.987 78.1711 169.086 86.3104 170.273 88.1756C171.46 90.0409 173.326 82.2407 176.548 84.7843C179.771 87.3278 178.075 92.4148 178.075 92.4148L174.004 103.437L179.092 97.6715Z" fill="url(#paint4_radial_70_1010)"/>
</g>
<path d="M172.139 103.098C209.28 51.5488 254.901 51.5488 300.183 51.0401C343.429 50.701 391.594 50.701 431.788 0.169569C391.594 50.701 350.552 51.0401 307.136 53.0749C288.48 54.0924 217.081 45.1052 176.548 105.472L164.337 127.685L163.998 115.137C164.337 115.476 168.238 108.185 172.139 103.098Z" fill="url(#paint5_linear_70_1010)"/>
<mask id="mask4_70_1010" style="mask-type:luminance" maskUnits="userSpaceOnUse" x="163" y="0" width="269" height="128">
<path d="M172.139 103.098C209.28 51.5488 254.901 51.5488 300.183 51.0401C343.429 50.701 391.594 50.701 431.788 0.169569C391.594 50.701 350.552 51.0401 307.136 53.0749C288.48 54.0924 217.081 45.1052 176.548 105.472L164.337 127.685L163.998 115.137C164.337 115.476 168.238 108.185 172.139 103.098Z" fill="white"/>
</mask>
<g mask="url(#mask4_70_1010)">
<path d="M172.139 103.098C209.28 51.5488 254.901 51.5488 300.183 51.0401C343.429 50.701 391.594 50.701 431.788 0.169569C391.594 50.701 350.552 51.0401 307.136 53.0749C288.48 54.0924 217.081 45.1052 176.548 105.472L164.337 127.685L163.998 115.137C164.337 115.476 168.238 108.185 172.139 103.098Z" fill="url(#paint6_linear_70_1010)"/>
</g>
<path d="M333.423 59.6881C333.423 59.6881 361.406 68.6752 375.482 82.7494C375.482 82.7494 367.342 88.6843 351.23 87.4973C351.23 87.4973 374.465 78.0015 333.423 59.6881Z" fill="#52AFE6"/>
<path d="M331.727 42.9008C331.727 42.9008 338.341 30.6919 334.949 18.9917L320.025 19.5004C320.025 19.5004 340.715 18.9917 331.727 42.9008Z" fill="#52AFE6"/>
<path d="M406.858 61.2142C406.858 61.2142 387.693 46.8009 368.529 49.0053C368.529 49.0053 388.881 50.3618 402.448 65.4534C402.787 65.4534 404.314 65.1143 406.858 61.2142Z" fill="#B5E6EA"/>
<path d="M43.7554 125.82H54.6095V127.176C51.2176 127.176 49.5216 129.211 49.5216 133.111V133.959L51.8959 162.107C51.8992 164.182 52.4241 166.223 53.4223 168.042C54.5555 169.168 56.0665 169.833 57.6622 169.908V171.095H41.0419V169.908C41.7409 169.901 42.4284 169.729 43.0476 169.404C43.6669 169.08 44.2001 168.613 44.6034 168.042C45.495 166.939 45.9747 165.56 45.9601 164.142V162.955L43.4162 133.45L27.6439 171.434H26.4568L10.8541 133.959L8.14054 162.107V163.294C7.9984 164.978 8.52304 166.649 9.60151 167.95C10.68 169.25 12.226 170.075 13.9068 170.247H14.0764V171.434H0V170.247C0.818658 170.183 1.6161 169.955 2.3446 169.577C3.07311 169.198 3.71772 168.676 4.23986 168.042C5.3117 166.122 5.89415 163.967 5.93581 161.768L8.64932 130.398C7.08017 128.667 5.00157 127.48 2.71351 127.007V125.82H14.4155L29.1703 161.768L43.7554 125.82Z" fill="#192948"/>
<path d="M77.6744 165.668V156.173L74.1129 157.36C72.0582 157.86 70.1808 158.916 68.6859 160.412C68.2002 160.926 67.8402 161.546 67.6342 162.222C67.4282 162.899 67.3819 163.614 67.4987 164.312C67.4037 165.545 67.7935 166.766 68.5853 167.716C69.3771 168.666 70.5085 169.27 71.7386 169.399C72.8886 169.379 74.0081 169.026 74.9609 168.382C76.102 167.75 77.0423 166.809 77.6744 165.668ZM69.8731 172.282C68.843 172.351 67.8097 172.21 66.8355 171.868C65.8614 171.526 64.9668 170.99 64.2058 170.293C63.4448 169.596 62.8332 168.751 62.4081 167.81C61.983 166.87 61.7531 165.853 61.7325 164.821C61.6697 163.908 61.8389 162.993 62.2244 162.163C62.6099 161.333 63.1991 160.614 63.9372 160.073C66.4596 158.375 69.2786 157.167 72.2474 156.512L77.6744 154.646V152.612C77.6805 150.748 77.0187 148.943 75.8089 147.525C75.2375 146.933 74.5524 146.462 73.7946 146.142C73.0369 145.821 72.2222 145.657 71.3994 145.659C69.7461 145.647 68.1355 146.184 66.8204 147.185C65.5106 148.364 64.5684 149.894 64.1068 151.594H62.7501C63.0996 149.127 64.3724 146.885 66.3116 145.32C68.0787 143.589 70.4518 142.616 72.9258 142.607C75.6509 142.628 78.2857 143.586 80.3879 145.32C81.3173 146.319 82.0364 147.493 82.5026 148.775C82.9687 150.057 83.1724 151.419 83.1014 152.781V164.821C82.9599 166.018 83.0756 167.232 83.4406 168.382C83.4817 168.666 83.6247 168.926 83.843 169.113C84.0614 169.3 84.3402 169.402 84.6278 169.399C84.7974 169.399 85.4758 169.06 85.4758 168.721C85.8301 168.075 86.1144 167.392 86.3237 166.686H87.8501C87.9308 167.469 87.8004 168.259 87.4724 168.975C87.1443 169.691 86.6306 170.305 85.9845 170.755C85.4679 171.256 84.857 171.648 84.1874 171.91C83.5178 172.172 82.8027 172.298 82.0839 172.282C79.7095 172.282 78.1832 171.095 77.3352 168.382C76.2743 169.637 75.0801 170.775 73.7737 171.773C72.5029 172.12 71.1904 172.291 69.8731 172.282Z" fill="#192948"/>
<path d="M118.207 142.438H119.394V166.008C119.252 167.204 119.554 168.41 120.242 169.399C121.416 170.099 122.785 170.396 124.143 170.247V171.434L113.967 171.942V166.855C112.903 168.502 111.448 169.859 109.732 170.805C108.015 171.752 106.091 172.259 104.131 172.282C102.895 172.362 101.656 172.16 100.51 171.69C99.3637 171.22 98.34 170.494 97.5167 169.569C96.5873 168.712 95.8613 167.658 95.3918 166.484C94.9223 165.311 94.7212 164.047 94.8032 162.786V148.372C94.8791 147.805 94.8101 147.227 94.6025 146.694C94.3949 146.16 94.0555 145.687 93.616 145.32C92.4427 144.621 91.0732 144.323 89.7153 144.472V143.285L98.7038 142.438H100.23V162.447C100.161 163.262 100.256 164.083 100.511 164.861C100.765 165.639 101.174 166.358 101.712 166.975C102.25 167.592 102.906 168.094 103.642 168.453C104.378 168.811 105.179 169.017 105.996 169.06H106.675C109.388 169.06 111.932 167.534 114.307 164.481V149.22C114.307 147.185 113.967 145.998 113.289 145.659C112.78 144.981 111.254 144.812 108.88 144.812V143.625L118.207 142.438Z" fill="#192948"/>
<path d="M137.032 142.438V148.372C138.893 146.647 140.876 145.06 142.968 143.625C144.06 142.805 145.345 142.279 146.699 142.098C147.64 142.085 148.573 142.258 149.447 142.607C150.32 142.956 151.115 143.475 151.787 144.133L149.582 149.22C147.601 147.908 145.332 147.093 142.968 146.846C140.709 147.294 138.639 148.417 137.032 150.068V165.668C136.89 166.865 137.192 168.071 137.88 169.06C138.991 169.759 140.307 170.058 141.611 169.908V171.095H126.517V169.908C127.875 170.057 129.245 169.759 130.418 169.06C131.096 168.382 131.266 166.855 131.266 164.481V148.881C131.416 148.208 131.418 147.511 131.272 146.838C131.125 146.164 130.834 145.531 130.418 144.981C128.945 144.263 127.3 143.969 125.669 144.133V142.946L135.506 142.098H137.032" fill="#192948"/>
<path d="M163.659 128.024C164.097 128.024 164.53 128.112 164.932 128.285C165.335 128.457 165.698 128.71 165.999 129.027C166.301 129.344 166.535 129.72 166.686 130.131C166.838 130.541 166.904 130.978 166.881 131.416C166.882 131.853 166.793 132.287 166.621 132.689C166.448 133.091 166.196 133.454 165.878 133.756C165.561 134.057 165.185 134.291 164.774 134.443C164.364 134.594 163.926 134.66 163.489 134.637C162.661 134.554 161.885 134.195 161.284 133.62C160.598 133.011 160.172 132.161 160.097 131.246C160.11 130.351 160.476 129.498 161.115 128.872C161.859 128.342 162.745 128.047 163.659 128.024ZM165.016 142.438H166.372V166.008C166.372 167.534 166.711 168.721 167.39 169.06C168.431 169.774 169.7 170.077 170.951 169.908V171.095H155.349V169.908C156.869 170.053 158.4 169.759 159.758 169.06C160.485 168.216 160.851 167.119 160.776 166.008V148.881C160.776 147.185 160.436 145.998 159.758 145.659C159.08 145.32 157.723 144.812 155.349 144.812V143.625L165.016 142.438Z" fill="#192948"/>
<path d="M201.139 142.438V152.273H199.783C199.274 149.901 198.097 147.724 196.391 145.998C195.563 145.195 194.582 144.565 193.507 144.146C192.431 143.727 191.283 143.527 190.129 143.559C188.975 143.59 187.84 143.852 186.789 144.33C185.738 144.807 184.793 145.49 184.01 146.338L183.502 146.846C181.681 149.293 180.726 152.276 180.788 155.325C180.702 158.849 181.774 162.304 183.841 165.16C184.664 166.402 185.769 167.434 187.066 168.17C188.362 168.907 189.814 169.328 191.303 169.399C193.299 169.231 195.251 168.715 197.069 167.873C198.986 166.885 200.62 165.426 201.818 163.634V165.668C200.457 167.72 198.583 169.379 196.38 170.48C194.178 171.581 191.726 172.085 189.268 171.942C187.511 172.081 185.745 171.862 184.075 171.3C182.405 170.738 180.867 169.844 179.551 168.672C178.236 167.5 177.172 166.073 176.423 164.479C175.673 162.884 175.255 161.155 175.191 159.394C175.023 158.9 175.023 158.363 175.191 157.868C175.06 153.804 176.52 149.85 179.262 146.846C180.571 145.415 182.171 144.28 183.956 143.52C185.741 142.759 187.668 142.39 189.607 142.438C191.648 142.403 193.672 142.808 195.543 143.625L197.578 144.133C198.011 144.111 198.425 143.951 198.761 143.676C199.097 143.402 199.336 143.027 199.443 142.607H201.139" fill="#192948"/>
<path d="M211.993 152.781H227.257V152.273C227.369 151.195 227.245 150.106 226.893 149.081C226.542 148.056 225.971 147.12 225.222 146.338C224.512 145.623 223.666 145.06 222.733 144.681C221.801 144.302 220.801 144.116 219.794 144.133C218.774 144.127 217.764 144.336 216.829 144.744C215.894 145.153 215.056 145.754 214.367 146.507C212.852 148.248 212.01 150.474 211.993 152.781ZM233.023 164.312V166.347C231.495 168.1 229.79 169.692 227.935 171.095C225.994 172.095 223.843 172.618 221.66 172.621C219.655 172.708 217.655 172.377 215.785 171.647C213.916 170.917 212.22 169.805 210.806 168.382C209.374 167.046 208.252 165.412 207.519 163.595C206.786 161.779 206.461 159.824 206.566 157.868C206.585 153.901 208.099 150.086 210.806 147.185C212.058 145.718 213.621 144.547 215.38 143.755C217.14 142.963 219.053 142.571 220.982 142.607C224.16 142.752 227.201 143.945 229.631 145.998C230.806 146.929 231.753 148.115 232.4 149.467C233.046 150.818 233.376 152.3 233.362 153.799V154.307H212.672V154.646C212.685 157.429 213.202 160.187 214.198 162.786C214.89 164.964 216.332 166.826 218.268 168.042C219.926 169.337 221.935 170.105 224.034 170.247C225.697 170.298 227.34 169.887 228.783 169.06C229.122 168.042 230.988 166.686 233.023 164.312Z" fill="#192948"/>
<path d="M262.702 150.238H275.591L269.316 131.076L262.702 150.238ZM277.457 171.434V170.247C280.001 170.247 281.358 169.399 281.358 167.534C281.326 166.9 281.212 166.273 281.018 165.668L276.779 153.12H262.024L259.141 162.447C258.411 164.047 258.007 165.776 257.954 167.534C257.954 169.399 259.141 170.586 261.515 170.586V171.773H249.813V170.586C251.289 170.432 252.667 169.773 253.714 168.721C254.93 167.031 255.954 165.211 256.766 163.294L269.316 125.65H274.065L287.293 164.821C287.712 166.513 288.525 168.082 289.668 169.399C290.963 170.104 292.441 170.399 293.908 170.247V171.434H277.457Z" fill="#192948"/>
<path d="M306.118 142.438V148.033C309.51 144.133 312.733 142.438 316.294 142.438C317.565 142.365 318.838 142.553 320.034 142.99C321.23 143.427 322.323 144.105 323.247 144.981C324.19 146.005 324.916 147.209 325.382 148.52C325.848 149.831 326.045 151.223 325.961 152.612V165.499C325.811 166.857 326.109 168.226 326.809 169.399C327.982 170.099 329.352 170.396 330.71 170.247V171.434H315.785V170.247C317.118 170.283 318.444 170.052 319.686 169.569C320.023 169.245 320.276 168.844 320.424 168.401C320.571 167.958 320.609 167.486 320.534 167.025V151.933C320.606 151.067 320.492 150.195 320.199 149.376C319.907 148.557 319.443 147.81 318.838 147.185C317.61 145.995 315.969 145.327 314.259 145.32C311.545 145.32 308.832 147.185 306.118 150.746V164.481C305.917 166.079 306.277 167.698 307.136 169.06C308.304 169.771 309.678 170.07 311.037 169.908V171.095H295.943V169.908C298.147 169.908 299.504 169.569 299.843 169.06C300.183 168.551 300.522 166.855 300.522 164.481V148.881C300.605 148.302 300.556 147.712 300.38 147.154C300.204 146.597 299.905 146.086 299.504 145.659C298.945 145.262 298.311 144.983 297.64 144.837C296.97 144.691 296.277 144.683 295.604 144.812V143.625L304.422 142.607H306.118" fill="#192948"/>
<path d="M356.827 166.008V148.881C355.736 147.483 354.418 146.28 352.926 145.32C351.6 144.512 350.07 144.1 348.517 144.133C347.268 144.114 346.035 144.416 344.937 145.009C343.838 145.603 342.91 146.469 342.242 147.525C340.549 149.962 339.66 152.867 339.698 155.833C339.539 159.63 340.742 163.359 343.09 166.347C344.168 167.667 345.547 168.709 347.111 169.388C348.674 170.066 350.378 170.361 352.079 170.247C352.645 170.33 353.223 170.298 353.776 170.153C354.33 170.007 354.849 169.751 355.301 169.399C355.858 169.044 356.299 168.534 356.57 167.931C356.842 167.329 356.931 166.66 356.827 166.008ZM361.067 121.411H362.254V166.008C362.112 167.204 362.414 168.41 363.102 169.399C364.208 170.111 365.529 170.411 366.833 170.247V171.434H350.213C345.855 171.616 341.598 170.096 338.341 167.195C336.838 165.898 335.646 164.28 334.853 162.46C334.06 160.64 333.688 158.665 333.762 156.681C333.663 152.907 335.066 149.248 337.663 146.507C338.86 145.231 340.304 144.213 341.908 143.513C343.512 142.813 345.241 142.447 346.991 142.438C350.391 142.625 353.676 143.739 356.488 145.659V128.363C356.662 127.041 356.487 125.697 355.979 124.463C355.572 124.086 355.089 123.801 354.563 123.625C354.036 123.45 353.478 123.389 352.926 123.446H351.4V122.259L361.067 121.411Z" fill="#192948"/>
<path d="M379.892 142.438V148.372C381.777 146.606 383.821 145.016 385.998 143.625C387.011 142.78 388.249 142.25 389.559 142.098C390.499 142.085 391.433 142.258 392.306 142.607C393.18 142.956 393.975 143.475 394.647 144.133L392.612 149.22C390.616 147.936 388.354 147.124 385.998 146.846C383.674 147.25 381.537 148.378 379.892 150.068V165.668C379.889 166.875 380.243 168.055 380.91 169.06C381.951 169.774 383.22 170.077 384.471 169.908V171.095H369.377V169.908C370.736 170.07 372.109 169.771 373.278 169.06C374.137 167.698 374.497 166.079 374.296 164.481V148.881C374.47 147.499 374.105 146.102 373.278 144.981C371.805 144.263 370.16 143.969 368.529 144.133V142.946L378.366 142.098H379.892" fill="#192948"/>
<path d="M403.296 152.781H418.56V152.273C418.672 151.195 418.548 150.106 418.196 149.081C417.845 148.056 417.274 147.12 416.524 146.338C415.828 145.607 414.984 145.032 414.048 144.652C413.112 144.272 412.107 144.095 411.097 144.133C410.077 144.127 409.067 144.336 408.132 144.744C407.197 145.153 406.358 145.754 405.67 146.507C404.316 148.34 403.495 150.511 403.296 152.781ZM424.665 164.312V166.347C423.137 168.1 421.432 169.692 419.577 171.095C417.63 172.077 415.483 172.599 413.302 172.621C411.297 172.708 409.297 172.377 407.428 171.647C405.559 170.917 403.863 169.805 402.448 168.382C401.016 167.046 399.894 165.412 399.161 163.595C398.429 161.779 398.103 159.824 398.208 157.868C398.227 153.901 399.741 150.086 402.448 147.185C403.701 145.718 405.263 144.547 407.022 143.755C408.782 142.963 410.695 142.571 412.624 142.607C415.802 142.752 418.843 143.945 421.273 145.998C422.448 146.929 423.395 148.115 424.042 149.467C424.689 150.818 425.018 152.3 425.004 153.799V154.307H404.314V154.646C404.351 157.413 404.808 160.157 405.67 162.786C406.489 164.944 407.974 166.786 409.91 168.042C411.568 169.337 413.577 170.105 415.676 170.247C417.337 170.281 418.976 169.871 420.425 169.06C420.764 168.042 422.46 166.686 424.665 164.312Z" fill="#192948"/>
<path d="M441.115 143.285V144.472C439.08 144.472 438.063 144.981 438.063 146.338C438.233 147.144 438.459 147.937 438.741 148.712L445.016 164.481L451.63 147.525C451.265 146.515 450.618 145.633 449.765 144.981C449.022 144.634 448.21 144.46 447.39 144.472V143.285H460.958V144.472C458.584 144.472 457.397 145.32 457.397 146.507C457.277 147.133 457.336 147.779 457.566 148.372L463.841 164.312L469.607 149.559C470.087 148.616 470.321 147.566 470.286 146.507C470.286 145.151 468.929 144.133 466.555 144.133V142.946H477.748V144.133C476.281 143.981 474.803 144.276 473.508 144.981C472.493 146.257 471.691 147.688 471.134 149.22L462.484 171.434H461.297L452.309 149.22L443.32 171.434H441.963L432.127 147.185C431.705 146.209 430.987 145.389 430.074 144.841C429.161 144.293 428.1 144.046 427.039 144.133V142.946H441.115" fill="#192948"/>
<path d="M500.134 142.438V151.086H498.778C498.635 149.121 497.72 147.292 496.234 145.998C495.605 145.389 494.862 144.91 494.047 144.59C493.231 144.269 492.361 144.114 491.485 144.133C490.896 144.106 490.307 144.196 489.754 144.4C489.2 144.604 488.693 144.917 488.263 145.32C487.838 145.623 487.503 146.035 487.294 146.513C487.085 146.99 487.01 147.516 487.076 148.033C487.015 148.6 487.091 149.173 487.297 149.704C487.504 150.235 487.835 150.709 488.263 151.086C489.798 152.306 491.515 153.278 493.351 153.968C495.926 154.968 498.244 156.533 500.134 158.547C501.446 160.137 502.09 162.173 501.932 164.228C501.774 166.284 500.826 168.198 499.286 169.569C498.493 170.44 497.523 171.132 496.441 171.6C495.359 172.068 494.19 172.3 493.011 172.282C491.227 172.137 489.493 171.617 487.924 170.755C487.24 170.411 486.484 170.236 485.719 170.247C485.275 170.27 484.854 170.45 484.532 170.755C484.212 171.201 484.034 171.733 484.023 172.282H482.497V162.786H484.023C484.403 165.069 485.537 167.159 487.245 168.721C488.839 170.107 490.901 170.835 493.011 170.755C494.361 170.755 495.655 170.22 496.609 169.266C497.563 168.312 498.099 167.018 498.099 165.668C498.125 164.38 497.706 163.122 496.912 162.108C495.212 160.677 493.255 159.583 491.146 158.886C488.761 157.919 486.532 156.604 484.532 154.986C483.394 153.459 482.882 151.554 483.103 149.663C483.324 147.771 484.26 146.036 485.719 144.812C487.392 143.295 489.566 142.449 491.824 142.438C493.068 142.37 494.306 142.664 495.386 143.285C496.016 143.61 496.712 143.784 497.421 143.794C498.438 143.794 498.778 143.625 499.286 142.607H500.134" fill="#192948"/>
<path d="M106.506 191.104H107.354V198.734H106.506C106.378 196.885 105.597 195.142 104.301 193.817C103.682 193.203 102.936 192.733 102.116 192.44C101.295 192.147 100.42 192.038 99.5522 192.121C98.0419 191.992 96.5358 192.413 95.3123 193.308C94.4759 194.194 93.9415 195.322 93.7859 196.53C93.7928 197.842 94.2748 199.107 95.1427 200.091C96.6921 201.879 98.5985 203.323 100.739 204.33C104.131 206.534 106.506 207.891 107.354 209.417C108.538 210.85 109.197 212.645 109.219 214.504C109.217 215.679 108.975 216.842 108.509 217.921C108.042 218.999 107.36 219.972 106.506 220.778C105.798 221.771 104.853 222.57 103.757 223.103C102.661 223.637 101.448 223.887 100.231 223.83C98.3632 223.778 96.5223 223.375 94.8035 222.643L92.938 221.965C92.4292 221.965 92.09 222.304 91.7508 223.322H90.9028V214.843H91.7508C91.7025 215.88 91.8712 216.916 92.2462 217.885C92.6211 218.853 93.1941 219.732 93.9283 220.466C94.6626 221.2 95.5421 221.773 96.5105 222.148C97.4789 222.523 98.5148 222.692 99.5522 222.643C101.205 222.656 102.816 222.119 104.131 221.117C104.736 220.6 105.206 219.945 105.501 219.206C105.796 218.468 105.908 217.669 105.827 216.878C105.719 215.557 105.183 214.307 104.301 213.317C102.544 211.57 100.545 210.085 98.365 208.908C96.6179 207.958 95.0183 206.758 93.6163 205.347C92.7449 204.505 92.1028 203.455 91.7508 202.295C91.4025 201.199 91.2308 200.054 91.242 198.904C91.161 197.799 91.3327 196.691 91.7441 195.662C92.1555 194.634 92.7958 193.713 93.6163 192.969C94.4458 192.167 95.4301 191.543 96.509 191.135C97.588 190.727 98.7389 190.543 99.8914 190.595C101.4 190.614 102.893 190.901 104.301 191.443L105.827 191.782L106.506 191.443V191.104Z" fill="#3472C1"/>
<path d="M124.482 207.382C124.347 211.307 125.477 215.171 127.705 218.404C128.6 219.561 129.716 220.528 130.988 221.249C132.26 221.97 133.663 222.431 135.115 222.604C136.568 222.778 138.04 222.661 139.446 222.26C140.853 221.859 142.165 221.183 143.307 220.269L145.173 218.404C147.398 215.297 148.531 211.54 148.395 207.721C148.555 203.741 147.425 199.816 145.173 196.53C144.155 195.259 142.865 194.233 141.397 193.529C139.929 192.824 138.321 192.459 136.693 192.46C135.028 192.378 133.369 192.707 131.861 193.416C130.353 194.126 129.042 195.195 128.044 196.53C125.33 199.243 124.482 202.804 124.482 207.382ZM119.734 207.382C119.598 205.201 119.954 203.017 120.776 200.992C121.598 198.966 122.865 197.152 124.482 195.682C127.73 192.601 132.047 190.899 136.524 190.934C138.705 190.798 140.89 191.154 142.915 191.976C144.941 192.798 146.756 194.064 148.226 195.682C149.773 197.206 150.992 199.03 151.808 201.042C152.625 203.054 153.022 205.211 152.974 207.382C153.064 209.558 152.686 211.728 151.867 213.746C151.048 215.765 149.806 217.584 148.226 219.083C146.65 220.655 144.768 221.888 142.697 222.704C140.626 223.521 138.41 223.904 136.185 223.83C133.999 223.927 131.816 223.567 129.777 222.774C127.738 221.982 125.885 220.774 124.338 219.227C122.791 217.68 121.583 215.828 120.79 213.789C119.997 211.75 119.638 209.568 119.734 207.382Z" fill="#3472C1"/>
<path d="M188.08 216.369H188.928L187.063 223.322H164.337V222.304C164.854 222.37 165.38 222.295 165.858 222.086C166.336 221.877 166.748 221.542 167.05 221.117C167.766 219.826 168.062 218.345 167.898 216.878V197.208C168.067 195.957 167.765 194.688 167.05 193.647C166.31 192.972 165.339 192.608 164.337 192.63V191.782H175.7V192.63C175.187 192.61 174.677 192.706 174.207 192.912C173.737 193.117 173.319 193.427 172.986 193.817C172.287 194.99 171.989 196.359 172.138 197.717V218.743C172.101 219.587 172.339 220.42 172.817 221.117C173.576 221.597 174.463 221.834 175.361 221.796H181.805C183.188 221.97 184.584 221.605 185.706 220.778C186.725 219.443 187.526 217.955 188.08 216.369Z" fill="#3472C1"/>
<path d="M207.584 191.782V192.63C206.397 192.63 205.04 192.969 204.87 193.817C204.123 194.975 203.766 196.342 203.853 197.717V217.217C203.766 218.593 204.123 219.96 204.87 221.117C205.203 221.507 205.621 221.817 206.091 222.023C206.561 222.228 207.071 222.325 207.584 222.304V223.322H196.051V222.304C197.578 222.304 198.595 221.965 198.765 221.117C198.934 220.269 199.443 219.083 199.443 217.217V197.717C199.451 196.387 199.221 195.066 198.765 193.817C198.041 193.094 197.073 192.671 196.051 192.63V191.782H207.584Z" fill="#3472C1"/>
<path d="M245.234 191.273V200.43H244.386C243.962 197.989 242.703 195.771 240.824 194.156C238.962 192.655 236.594 191.926 234.21 192.121C232.584 192.018 230.958 192.321 229.478 193.001C227.998 193.682 226.71 194.72 225.73 196.021C223.664 198.997 222.649 202.578 222.847 206.195C222.71 210.226 223.837 214.198 226.07 217.556C227.027 218.945 228.325 220.065 229.84 220.807C231.354 221.549 233.035 221.89 234.719 221.796C237.05 221.808 239.337 221.162 241.317 219.932C243.298 218.702 244.89 216.938 245.912 214.843L246.76 215.691C245.703 218.183 243.933 220.306 241.672 221.796C239.209 223.238 236.384 223.945 233.532 223.83C230.799 223.839 228.111 223.138 225.73 221.796C223.473 220.441 221.557 218.584 220.134 216.369C218.814 213.85 218.061 211.072 217.929 208.23C217.786 203.716 219.431 199.328 222.508 196.021C223.978 194.404 225.793 193.137 227.819 192.315C229.844 191.493 232.028 191.137 234.21 191.273C236.218 191.293 238.213 191.578 240.146 192.121L242.859 192.63C243.22 192.745 243.611 192.722 243.956 192.565C244.3 192.409 244.575 192.13 244.725 191.782H245.234" fill="#3472C1"/>
<path d="M266.603 191.782V192.63C265.415 192.63 264.228 192.969 263.889 193.817C263.189 194.99 262.892 196.359 263.041 197.717V217.217C262.892 218.575 263.189 219.944 263.889 221.117C264.222 221.507 264.639 221.817 265.109 222.023C265.579 222.228 266.09 222.325 266.603 222.304V223.322H255.24V222.304C256.766 222.304 257.614 221.965 257.953 221.117C258.292 220.269 258.462 219.083 258.462 217.217V197.717C258.449 196.401 258.278 195.092 257.953 193.817C257.23 193.094 256.261 192.671 255.24 192.63V191.782H266.603Z" fill="#3472C1"/>
<path d="M295.604 193.308H290.855V217.556C290.819 218.889 291.05 220.215 291.533 221.456C291.883 221.807 292.313 222.068 292.785 222.215C293.258 222.363 293.76 222.394 294.247 222.304V223.322H283.054V222.304C284.58 222.304 285.428 222.135 285.767 221.117C286.332 219.9 286.566 218.554 286.445 217.217V193.308H281.866C280.236 193.161 278.596 193.454 277.118 194.156C276.112 195.098 275.454 196.353 275.252 197.717H274.404V190.595H275.931C277.303 191.583 279.003 192.008 280.679 191.782H296.96C298.742 191.983 300.539 191.564 302.048 190.595H302.896V197.717H302.218C302.144 197.015 301.925 196.335 301.575 195.722C301.225 195.109 300.75 194.576 300.183 194.156C298.768 193.443 297.18 193.149 295.604 193.308Z" fill="#3472C1"/>
<path d="M316.124 207.382C315.989 211.307 317.118 215.171 319.346 218.404C320.241 219.561 321.357 220.528 322.63 221.249C323.902 221.97 325.305 222.431 326.757 222.604C328.209 222.778 329.681 222.661 331.088 222.26C332.494 221.859 333.807 221.183 334.949 220.269L336.815 218.404C338.918 215.144 340.036 211.347 340.036 207.467C340.036 203.587 338.918 199.79 336.815 196.53C335.797 195.259 334.506 194.233 333.039 193.529C331.571 192.824 329.963 192.459 328.335 192.46C326.67 192.378 325.011 192.707 323.503 193.416C321.994 194.126 320.684 195.195 319.686 196.53C316.972 199.243 316.124 202.804 316.124 207.382ZM311.206 207.382C311.149 205.195 311.558 203.02 312.406 201.003C313.254 198.986 314.521 197.172 316.124 195.682C319.33 192.642 323.577 190.943 327.996 190.934C330.179 190.786 332.367 191.136 334.394 191.959C336.422 192.781 338.236 194.055 339.698 195.682C341.3 197.172 342.568 198.986 343.416 201.003C344.264 203.02 344.673 205.195 344.616 207.382C344.719 209.576 344.33 211.764 343.48 213.788C342.629 215.812 341.337 217.621 339.698 219.083C336.459 222.123 332.184 223.815 327.741 223.815C323.299 223.815 319.024 222.123 315.785 219.083C312.816 215.913 311.178 211.725 311.206 207.382Z" fill="#3472C1"/>
<path d="M366.494 192.969H363.102V207.382H367.003C368.001 207.453 369.002 207.308 369.938 206.957C370.875 206.606 371.725 206.057 372.43 205.347C373.813 203.875 374.599 201.941 374.635 199.921C374.681 198.961 374.507 198.003 374.125 197.121C373.742 196.239 373.163 195.457 372.43 194.834C370.68 193.637 368.614 192.988 366.494 192.969ZM365.476 208.569H363.102V217.217C362.928 218.6 363.292 219.996 364.12 221.117C364.444 221.518 364.86 221.835 365.332 222.041C365.804 222.248 366.319 222.338 366.833 222.304V223.322H355.301V222.304C356.827 222.304 357.675 221.965 358.014 221.117C358.353 220.269 358.693 219.083 358.693 217.217V197.547C358.729 196.215 358.498 194.889 358.014 193.647C357.681 193.257 357.264 192.948 356.794 192.742C356.324 192.536 355.813 192.44 355.301 192.46V191.443H368.19C370.926 191.369 373.61 192.204 375.822 193.817C376.703 194.576 377.415 195.512 377.911 196.563C378.408 197.615 378.678 198.759 378.705 199.921C378.705 203.821 376.67 206.195 372.091 207.721C373.072 208.421 373.981 209.216 374.804 210.095C376.184 211.77 377.378 213.589 378.366 215.522C379.471 217.41 380.779 219.173 382.266 220.778C383.086 221.612 384.16 222.149 385.319 222.304V223.322H379.044C377.308 221.113 375.721 218.79 374.295 216.369C373.001 214.029 371.34 211.911 369.377 210.095C368.861 209.595 368.25 209.203 367.58 208.941C366.91 208.679 366.195 208.553 365.476 208.569Z" fill="#3472C1"/>
<path d="M410.249 191.273H411.097V198.734H410.249C410.116 196.919 409.403 195.195 408.214 193.817C406.963 192.79 405.419 192.188 403.803 192.096C402.187 192.005 400.584 192.429 399.226 193.308C398.752 193.702 398.371 194.194 398.107 194.751C397.844 195.307 397.704 195.914 397.699 196.53C397.675 197.87 398.092 199.181 398.886 200.26C400.487 201.948 402.384 203.328 404.483 204.33C407.875 206.534 410.249 207.891 411.097 209.417C412.282 210.85 412.94 212.645 412.963 214.504C412.919 216.874 411.958 219.135 410.282 220.811C408.606 222.487 406.344 223.448 403.974 223.491C402.097 223.524 400.239 223.118 398.547 222.304L396.682 221.796C396.173 221.796 395.834 221.965 395.494 222.983H394.646V214.504H395.494C395.492 215.574 395.7 216.634 396.108 217.623C396.515 218.612 397.113 219.512 397.869 220.269C398.586 220.962 399.438 221.499 400.371 221.849C401.305 222.199 402.3 222.354 403.296 222.304C404.949 222.317 406.56 221.78 407.875 220.778C408.466 220.288 408.929 219.661 409.224 218.952C409.519 218.243 409.638 217.473 409.571 216.709C409.56 215.346 409.081 214.029 408.214 212.978C406.365 211.266 404.315 209.786 402.109 208.569C400.389 207.577 398.794 206.381 397.36 205.008C396.489 204.166 395.846 203.116 395.494 201.956C395.161 200.915 394.989 199.828 394.986 198.734C394.964 196.47 395.814 194.284 397.36 192.63C399.085 191.088 401.321 190.242 403.635 190.256C405.164 190.248 406.674 190.596 408.044 191.273H410.249C409.91 192.121 409.91 191.782 410.249 191.273Z" fill="#3472C1"/>
</g>
<defs>
<radialGradient id="paint0_radial_70_1010" cx="0" cy="0" r="1" gradientUnits="userSpaceOnUse" gradientTransform="translate(390.831 82.2238) scale(225.629 225.594)">
<stop stop-color="white"/>
<stop offset="0.19" stop-color="#489CDC"/>
<stop offset="0.4" stop-color="#489CDC"/>
<stop offset="0.58" stop-color="#3572C1"/>
<stop offset="0.81" stop-color="#192949"/>
<stop offset="1" stop-color="#192949"/>
</radialGradient>
<radialGradient id="paint1_radial_70_1010" cx="0" cy="0" r="1" gradientUnits="userSpaceOnUse" gradientTransform="translate(-3410.96 3527.45) rotate(38.153) scale(202.651 204.562)">
<stop stop-color="#FAF8E2"/>
<stop offset="0.37" stop-color="#DBD5A7"/>
<stop offset="0.63" stop-color="#A8914E"/>
<stop offset="0.9" stop-color="#684C2A"/>
<stop offset="1" stop-color="#684C2A"/>
</radialGradient>
<radialGradient id="paint2_radial_70_1010" cx="0" cy="0" r="1" gradientUnits="userSpaceOnUse" gradientTransform="translate(-2463.38 3480.46) rotate(35.8303) scale(125.642 125.6)">
<stop stop-color="white"/>
<stop offset="0.1" stop-color="white"/>
<stop offset="0.4" stop-color="#489CDC"/>
<stop offset="0.58" stop-color="#3572C1"/>
<stop offset="0.81" stop-color="#192949"/>
<stop offset="1" stop-color="#192949"/>
</radialGradient>
<radialGradient id="paint3_radial_70_1010" cx="0" cy="0" r="1" gradientUnits="userSpaceOnUse" gradientTransform="translate(1241.29 6185.25) rotate(35.8349) scale(125.006 124.927)">
<stop stop-color="white"/>
<stop offset="0.1" stop-color="white"/>
<stop offset="0.4" stop-color="#489CDC"/>
<stop offset="0.58" stop-color="#3572C1"/>
<stop offset="0.81" stop-color="#192949"/>
<stop offset="1" stop-color="#192949"/>
</radialGradient>
<radialGradient id="paint4_radial_70_1010" cx="0" cy="0" r="1" gradientUnits="userSpaceOnUse" gradientTransform="translate(-31.3956 5265.57) rotate(35.8435) scale(124.838 124.81)">
<stop stop-color="white"/>
<stop offset="0.1" stop-color="white"/>
<stop offset="0.4" stop-color="#489CDC"/>
<stop offset="0.58" stop-color="#3572C1"/>
<stop offset="0.81" stop-color="#192949"/>
<stop offset="1" stop-color="#192949"/>
</radialGradient>
<linearGradient id="paint5_linear_70_1010" x1="160.962" y1="106.743" x2="365.401" y2="30.6883" gradientUnits="userSpaceOnUse">
<stop stop-color="#192948"/>
<stop offset="0.34" stop-color="#489CDC"/>
<stop offset="0.5" stop-color="#489CDC"/>
<stop offset="0.87" stop-color="#3572C1"/>
</linearGradient>
<linearGradient id="paint6_linear_70_1010" x1="160.962" y1="106.743" x2="365.401" y2="30.6883" gradientUnits="userSpaceOnUse">
<stop stop-color="#192948"/>
<stop offset="0.34" stop-color="#489CDC"/>
<stop offset="0.5" stop-color="#489CDC"/>
<stop offset="0.87" stop-color="#3572C1"/>
</linearGradient>
<clipPath id="clip0_70_1010">
<rect width="502" height="224" fill="white"/>
</clipPath>
</defs>
</svg>
